HIERARCHY
ROOT SpineBase
{
  OFFSET 0.000000 0.000000 0.000000
  CHANNELS 6 Xposition Yposition Zposition Zrotation Xrotation Yrotation
  JOINT SpineMid
  {
    OFFSET 0.000000 29.529634 0.000000
    CHANNELS 3 Zrotation Xrotation Yrotation
    JOINT SpineShoulder
    {
      OFFSET 0.216205 21.874401 -0.795078
      CHANNELS 3 Zrotation Xrotation Yrotation
      JOINT Neck
      {
        OFFSET 0.029689 7.275351 -0.542951
        CHANNELS 3 Zrotation Xrotation Yrotation
        JOINT Head
        {
          OFFSET -3.406274 14.034044 -1.328208
          CHANNELS 3 Zrotation Xrotation Yrotation
          End Site
          {
            OFFSET 0 0 0
          }
        }
      }
      JOINT ShoulderLeft
      {
        OFFSET -16.386682 -3.942023 2.885840
        CHANNELS 3 Zrotation Xrotation Yrotation
        JOINT ElbowLeft
        {
          OFFSET -1.802556 -20.787616 -1.827738
          CHANNELS 3 Zrotation Xrotation Yrotation
          JOINT WristLeft
          {
            OFFSET 2.683995 10.619475 -22.173130
            CHANNELS 3 Zrotation Xrotation Yrotation
            JOINT HandLeft
            {
              OFFSET -2.863998 4.726245 -4.212197
              CHANNELS 3 Zrotation Xrotation Yrotation
              JOINT HandTipLeft
              {
                OFFSET -0.701863 2.558841 -3.200191
                CHANNELS 3 Zrotation Xrotation Yrotation
                End Site
                {
                  OFFSET 0 0 0
                }
              }
              JOINT ThumbLeft
              {
                OFFSET -4.047602 3.150305 1.036776
                CHANNELS 3 Zrotation Xrotation Yrotation
                End Site
                {
                  OFFSET 0 0 0
                }
              }
            }
          }
        }
      }
      JOINT ShoulderRight
      {
        OFFSET 15.034401 -2.058088 -5.378428
        CHANNELS 3 Zrotation Xrotation Yrotation
        JOINT ElbowRight
        {
          OFFSET 6.359290 -23.212912 0.234035
          CHANNELS 3 Zrotation Xrotation Yrotation
          JOINT WristRight
          {
            OFFSET -4.885472 -20.441745 -6.800566
            CHANNELS 3 Zrotation Xrotation Yrotation
            JOINT HandRight
            {
              OFFSET -2.662171 -5.978642 -0.678252
              CHANNELS 3 Zrotation Xrotation Yrotation
              JOINT HandTipRight
              {
                OFFSET -0.165600 -5.874342 -0.633516
                CHANNELS 3 Zrotation Xrotation Yrotation
                End Site
                {
                  OFFSET 0 0 0
                }
              }
              JOINT ThumbRight
              {
                OFFSET -3.237597 1.028881 -1.392783
                CHANNELS 3 Zrotation Xrotation Yrotation
                End Site
                {
                  OFFSET 0 0 0
                }
              }
            }
          }
        }
      }
    }
  }
  JOINT HipLeft
  {
    OFFSET -6.801765 0.646568 -1.628629
    CHANNELS 3 Zrotation Xrotation Yrotation
    JOINT KneeLeft
    {
      OFFSET 2.704072 -28.009272 5.365628
      CHANNELS 3 Zrotation Xrotation Yrotation
      JOINT AnkleLeft
      {
        OFFSET 0.527311 -31.564307 4.437463
        CHANNELS 3 Zrotation Xrotation Yrotation
        JOINT FootLeft
        {
          OFFSET 5.448729 -6.111676 -5.713986
          CHANNELS 3 Zrotation Xrotation Yrotation
          End Site
          {
            OFFSET 0 0 0
          }
        }
      }
    }
  }
  JOINT HipRight
  {
    OFFSET 7.629290 1.344344 -5.041920
    CHANNELS 3 Zrotation Xrotation Yrotation
    JOINT KneeRight
    {
      OFFSET 4.793690 -24.833600 2.040256
      CHANNELS 3 Zrotation Xrotation Yrotation
      JOINT AnkleRight
      {
        OFFSET -0.035978 -36.536597 4.682954
        CHANNELS 3 Zrotation Xrotation Yrotation
        JOINT FootRight
        {
          OFFSET -5.153034 -6.315795 -3.618922
          CHANNELS 3 Zrotation Xrotation Yrotation
          End Site
          {
            OFFSET 0 0 0
          }
        }
      }
    }
  }
}
MOTION
Frames: 12
Frame Time: 0.033333
-38.435842 67.258626 338.864004 -0.000000 0.000000 13.307275 -0.000000 0.000000 -13.307275 -0.000000 0.000000 0.000000 -0.000000 0.000000 0.000000 0.000000 0.000000 0.000000 -0.000000 0.000000 0.000000 -0.000000 0.000000 0.000000 -0.000000 0.000000 0.000000 -0.000000 0.000000 0.000000 0.000000 0.000000 0.000000 0.000000 0.000000 0.000000 -0.000000 0.000000 0.000000 -0.000000 0.000000 0.000000 -0.000000 0.000000 0.000000 -0.000000 0.000000 0.000000 0.000000 0.000000 0.000000 0.000000 0.000000 0.000000 -0.000000 0.000000 -13.307275 -0.000000 0.000000 0.000000 -0.000000 0.000000 0.000000 0.000000 0.000000 0.000000 -0.000000 0.000000 -13.307275 -0.000000 0.000000 0.000000 -0.000000 0.000000 0.000000 0.000000 0.000000 0.000000
-38.374207 67.271171 338.846662 0.071565 0.028954 13.020494 -0.076249 -0.012086 -13.020521 -0.000000 0.000000 0.000000 -0.000000 0.000000 0.000000 0.000000 0.000000 0.000000 0.520737 -0.677690 0.016074 -0.902782 -7.354663 1.049336 0.077794 5.516503 -2.918521 2.903828 -11.051414 1.084039 0.000000 0.000000 0.000000 0.000000 0.000000 0.000000 -0.000000 0.000000 0.000000 -0.000000 0.000000 0.000000 -1.810257 -1.399027 0.801726 -0.612786 2.911691 -0.531653 0.000000 0.000000 0.000000 0.000000 0.000000 0.000000 -0.076249 -0.012086 -13.020521 -0.000000 0.000000 0.000000 -0.000000 0.000000 0.000000 0.000000 0.000000 0.000000 -0.076249 -0.012086 -13.020521 -0.000000 0.000000 0.000000 2.048613 -0.092470 -1.113597 0.000000 0.000000 0.000000
-38.326317 67.282810 338.838081 0.129767 0.056110 12.776976 -0.138962 -0.026022 -12.777071 -0.000000 0.000000 0.000000 -0.000000 0.000000 0.000000 0.000000 0.000000 0.000000 1.007369 -1.452662 0.050262 -1.743479 -14.694782 1.896334 0.423300 10.136894 -6.034865 6.544563 -20.312601 3.288075 0.000000 0.000000 0.000000 0.000000 0.000000 0.000000 -0.000000 0.000000 0.000000 -0.000000 0.000000 0.000000 -3.591638 -2.589294 1.462799 -0.825492 5.315240 -0.905216 0.000000 0.000000 0.000000 0.000000 0.000000 0.000000 -0.138962 -0.026022 -12.777071 -0.000000 0.000000 0.000000 -0.000000 0.000000 0.000000 0.000000 0.000000 0.000000 -0.138962 -0.026022 -12.777071 -0.000000 0.000000 0.000000 3.553413 -0.247486 -1.876801 0.000000 0.000000 0.000000
-38.292170 67.293542 338.838261 0.174582 0.081465 12.576315 -0.188132 -0.041496 -12.576507 -0.000000 0.000000 0.000000 -0.000000 0.000000 0.000000 0.000000 0.000000 0.000000 1.450996 -2.308776 0.102176 -2.572690 -22.044558 2.519857 1.018869 13.223172 -9.628897 10.895007 -26.461574 6.746236 0.000000 0.000000 0.000000 0.000000 0.000000 0.000000 -0.000000 0.000000 0.000000 0.653205 0.620771 -0.369049 -5.896388 -4.113821 2.249578 -0.652944 7.023278 -1.155319 0.000000 0.000000 0.000000 0.000000 0.000000 0.000000 -0.188132 -0.041496 -12.576507 -0.000000 0.000000 0.000000 -0.489020 -0.789928 -0.253016 0.000000 0.000000 0.000000 -0.188132 -0.041496 -12.576507 -0.961360 -0.335903 -0.125661 5.474773 -0.094258 -2.195904 0.000000 0.000000 0.000000
-38.271768 67.303366 338.847203 0.205994 0.105015 12.418192 -0.223757 -0.058259 -12.418494 -0.000000 0.000000 0.000000 -0.000000 0.000000 0.000000 0.000000 0.000000 0.000000 1.844585 -3.227032 0.170325 -3.461910 -29.460411 2.872485 1.761410 13.589991 -14.150017 15.391201 -27.976124 11.159677 0.000000 0.000000 0.000000 0.000000 0.000000 0.000000 -0.000000 0.000000 0.000000 0.817468 0.633999 -0.427947 -7.533401 -4.585286 2.565408 -0.152179 7.892865 -1.302514 0.000000 0.000000 0.000000 0.000000 0.000000 0.000000 -0.223757 -0.058259 -12.418494 -0.000000 0.000000 0.000000 -0.699427 -0.939104 -0.191576 0.000000 0.000000 0.000000 -0.223757 -0.058259 -12.418494 -1.109993 -0.386583 -0.145574 6.039965 -0.257978 -2.247349 0.000000 0.000000 0.000000
-38.265109 67.312284 338.864906 0.223982 0.126756 12.302375 -0.245847 -0.076121 -12.302786 -0.000000 0.000000 0.000000 -0.000000 0.000000 0.000000 0.000000 0.000000 0.000000 2.183308 -4.186904 0.252277 -4.524439 -37.017628 2.860370 2.214857 9.028729 -20.297898 18.501568 -22.638137 15.587763 0.000000 0.000000 0.000000 0.000000 0.000000 0.000000 -0.000000 0.000000 0.000000 0.957927 0.554046 -0.455913 -8.869025 -4.453378 2.648109 0.588793 7.844788 -1.343235 0.000000 0.000000 0.000000 0.000000 0.000000 0.000000 -0.245847 -0.076121 -12.302786 -0.000000 0.000000 0.000000 -0.932573 -1.030875 -0.056444 0.000000 0.000000 0.000000 -0.245847 -0.076121 -12.302786 -1.172407 -0.406720 -0.153964 5.975081 -0.474316 -1.954309 0.000000 0.000000 0.000000
-38.261315 67.327753 338.878539 0.249051 0.154362 12.186087 -0.276024 -0.098310 -12.186659 -0.000000 0.000000 0.000000 -0.533924 0.708321 0.124905 0.000000 0.000000 0.000000 2.529758 -5.700412 0.400732 -7.199000 -46.066189 0.998558 19.711978 -7.227658 -22.855149 4.175104 -12.944238 17.419536 0.000000 0.000000 0.000000 0.000000 0.000000 0.000000 -0.000000 0.000000 0.000000 1.194379 0.276549 -0.467124 -10.820246 -3.468445 2.552810 2.533385 6.567909 -1.361193 0.000000 0.000000 0.000000 0.000000 0.000000 0.000000 -0.276024 -0.098310 -12.186659 -0.000000 0.000000 0.000000 -1.591384 -1.243632 0.370218 0.000000 0.000000 0.000000 -0.276024 -0.098310 -12.186659 -1.103383 -0.311127 -0.144065 4.143667 -1.234521 -0.322577 0.000000 0.000000 0.000000
-38.285655 67.335998 338.916666 0.235596 0.172173 12.211514 -0.266684 -0.118442 -12.212144 -0.000000 0.000000 0.000000 -0.630532 0.639564 0.099262 0.000000 0.000000 0.000000 2.943254 -6.483816 0.474156 -9.396109 -56.174774 0.032117 6.131219 -12.879982 -35.079462 13.848954 6.631435 21.989857 0.000000 0.000000 0.000000 0.000000 0.000000 0.000000 -0.000000 0.000000 0.000000 1.405492 -0.110225 -0.441341 -11.946936 -2.281762 2.391850 3.909257 4.623347 -1.279407 0.000000 0.000000 0.000000 0.000000 0.000000 0.000000 -0.266684 -0.118442 -12.212144 -0.000000 0.000000 0.000000 -2.408207 -1.426868 0.979417 0.000000 0.000000 0.000000 -0.266684 -0.118442 -12.212144 -0.969419 -0.298614 -0.126444 3.115752 -1.550180 0.438350 0.000000 0.000000 0.000000
-38.332816 67.337157 338.973233 0.195159 0.169758 12.287659 -0.226816 -0.124334 -12.288194 -0.000000 0.000000 0.000000 -0.672706 0.625989 0.092125 0.000000 0.000000 0.000000 3.139296 -7.089135 0.538129 -13.513268 -64.265994 -3.505272 -20.888134 -21.367461 -52.927937 27.466307 36.645514 19.299159 0.000000 0.000000 0.000000 0.000000 0.000000 0.000000 -0.000000 0.000000 0.000000 1.459541 -0.489296 -0.364038 -12.222497 0.027337 1.761029 4.251025 1.030772 -0.600053 0.000000 0.000000 0.000000 0.000000 0.000000 0.000000 -0.226816 -0.124334 -12.288194 -0.000000 0.000000 0.000000 -2.574850 -1.236632 1.317000 0.000000 0.000000 0.000000 -0.226816 -0.124334 -12.288194 -0.000000 0.000000 0.000000 1.534759 -1.871592 0.686693 0.000000 0.000000 0.000000
-38.402969 67.334460 339.037164 0.107726 0.150561 12.414513 -0.137575 -0.123881 -12.414804 -0.000000 0.000000 0.000000 -0.000000 0.000000 0.000000 0.000000 0.000000 0.000000 3.076858 -7.548867 0.592786 -18.609909 -68.799169 -8.603851 -45.351283 -23.954840 -68.392333 37.143223 57.641285 11.930832 0.000000 0.000000 0.000000 0.000000 0.000000 0.000000 -0.000000 0.000000 0.000000 1.636266 -0.661387 -0.378895 -12.199866 3.637602 0.619454 5.360320 -2.696967 0.742272 0.000000 0.000000 0.000000 0.000000 0.000000 0.000000 -0.137575 -0.123881 -12.414804 -0.000000 0.000000 0.000000 -1.675115 -0.378610 1.243143 0.000000 0.000000 0.000000 -0.137575 -0.123881 -12.414804 -0.000000 0.000000 0.000000 1.351036 -1.335601 0.336825 0.000000 0.000000 0.000000
-38.488122 67.333382 339.117044 0.009172 0.120919 12.693271 -0.035518 -0.115949 -12.693317 -0.000000 0.000000 0.000000 -0.000000 0.000000 0.000000 0.000000 0.000000 0.000000 3.035686 -7.526852 0.591145 -25.134766 -71.464666 -15.345838 -64.467724 -18.178538 -75.211011 38.314177 66.569423 13.403526 0.000000 0.000000 0.000000 0.000000 0.000000 0.000000 -0.000000 0.000000 0.000000 1.193370 -0.940561 -0.163287 -9.163467 5.220224 -0.384662 2.806379 -6.332656 1.434256 0.000000 0.000000 0.000000 0.000000 0.000000 0.000000 -0.035518 -0.115949 -12.693317 -0.000000 0.000000 0.000000 -1.496889 -0.311779 1.133582 0.000000 0.000000 0.000000 -0.035518 -0.115949 -12.693317 -0.000000 0.000000 0.000000 1.103374 -0.230907 -0.445641 0.000000 0.000000 0.000000
-38.584508 67.336823 339.195845 -0.105605 0.091793 13.121049 0.082011 -0.113370 -13.120883 -0.000000 0.000000 0.000000 -0.000000 0.000000 0.000000 0.000000 0.000000 0.000000 2.984680 -7.543994 0.594227 -33.132472 -73.977923 -23.493111 -81.419235 -3.259597 -64.913937 52.277195 64.083399 9.425841 0.000000 0.000000 0.000000 0.000000 0.000000 0.000000 -0.000000 0.000000 0.000000 0.543833 -0.921347 0.043818 -5.488047 5.519476 -1.214625 0.458745 -7.623671 1.758879 0.000000 0.000000 0.000000 0.000000 0.000000 0.000000 0.082011 -0.113370 -13.120883 -0.000000 0.000000 0.000000 -0.910337 -0.189360 0.686711 0.000000 0.000000 0.000000 0.082011 -0.113370 -13.120883 -0.000000 0.000000 0.000000 2.722904 1.126840 -2.541249 0.000000 0.000000 0.000000
